<mxfile host="app.diagrams.net" modified="2023-11-17T09:52:04.390Z" agent="Mozilla/5.0 (Windows NT 10.0; Win64; x64) AppleWebKit/537.36 (KHTML, like Gecko) Chrome/119.0.0.0 Safari/537.36 Edg/119.0.0.0" etag="MgafZToX8GFDSoNd1Gdo" version="22.1.2" type="device">
  <diagram name="Page-1" id="I4HfsY8Wxma_wt0DjAuv">
    <mxGraphModel dx="1425" dy="541" grid="1" gridSize="10" guides="1" tooltips="1" connect="1" arrows="1" fold="1" page="1" pageScale="1" pageWidth="827" pageHeight="1169" math="1" shadow="0">
      <root>
        <mxCell id="0" />
        <mxCell id="1" parent="0" />
        <mxCell id="vNdtTapxPS1aFq_T5mcr-1" value="FEM Model" style="whiteSpace=wrap;html=1;aspect=fixed;strokeWidth=3;fillColor=#f8cecc;strokeColor=#b85450;fontFamily=Times New Roman;fontSize=20;" vertex="1" parent="1">
          <mxGeometry x="560" y="320" width="200" height="200" as="geometry" />
        </mxCell>
        <mxCell id="vNdtTapxPS1aFq_T5mcr-2" value="" style="pointerEvents=1;verticalLabelPosition=bottom;shadow=0;dashed=0;align=center;html=1;verticalAlign=top;shape=mxgraph.electrical.resistors.resistor_2;strokeWidth=3;fontFamily=Times New Roman;fontSize=20;" vertex="1" parent="1">
          <mxGeometry x="260" y="359" width="100" height="20" as="geometry" />
        </mxCell>
        <mxCell id="vNdtTapxPS1aFq_T5mcr-3" value="" style="pointerEvents=1;verticalLabelPosition=bottom;shadow=0;dashed=0;align=center;html=1;verticalAlign=top;shape=mxgraph.electrical.inductors.inductor_5;strokeWidth=3;fontFamily=Times New Roman;fontSize=20;" vertex="1" parent="1">
          <mxGeometry x="390" y="360" width="100" height="14" as="geometry" />
        </mxCell>
        <mxCell id="vNdtTapxPS1aFq_T5mcr-4" value="" style="endArrow=none;html=1;rounded=0;strokeWidth=3;exitX=1;exitY=0.645;exitDx=0;exitDy=0;exitPerimeter=0;entryX=0;entryY=0.25;entryDx=0;entryDy=0;fontFamily=Times New Roman;fontSize=20;" edge="1" parent="1" source="vNdtTapxPS1aFq_T5mcr-3" target="vNdtTapxPS1aFq_T5mcr-1">
          <mxGeometry width="50" height="50" relative="1" as="geometry">
            <mxPoint x="390" y="430" as="sourcePoint" />
            <mxPoint x="440" y="380" as="targetPoint" />
          </mxGeometry>
        </mxCell>
        <mxCell id="vNdtTapxPS1aFq_T5mcr-5" value="" style="endArrow=none;html=1;rounded=0;strokeWidth=3;entryX=0;entryY=0.5;entryDx=0;entryDy=0;entryPerimeter=0;startArrow=none;startFill=0;fontFamily=Times New Roman;fontSize=20;" edge="1" parent="1" target="vNdtTapxPS1aFq_T5mcr-2">
          <mxGeometry width="50" height="50" relative="1" as="geometry">
            <mxPoint x="200" y="369" as="sourcePoint" />
            <mxPoint x="260" y="367.5" as="targetPoint" />
          </mxGeometry>
        </mxCell>
        <mxCell id="vNdtTapxPS1aFq_T5mcr-6" value="" style="endArrow=none;html=1;rounded=0;strokeWidth=3;entryX=0;entryY=0.645;entryDx=0;entryDy=0;entryPerimeter=0;exitX=1;exitY=0.5;exitDx=0;exitDy=0;exitPerimeter=0;fontFamily=Times New Roman;fontSize=20;" edge="1" parent="1" source="vNdtTapxPS1aFq_T5mcr-2" target="vNdtTapxPS1aFq_T5mcr-3">
          <mxGeometry width="50" height="50" relative="1" as="geometry">
            <mxPoint x="170" y="377" as="sourcePoint" />
            <mxPoint x="270" y="377" as="targetPoint" />
          </mxGeometry>
        </mxCell>
        <mxCell id="vNdtTapxPS1aFq_T5mcr-7" value="" style="endArrow=none;html=1;rounded=0;strokeWidth=3;entryX=0;entryY=0.75;entryDx=0;entryDy=0;startArrow=none;startFill=0;fontFamily=Times New Roman;fontSize=20;" edge="1" parent="1" target="vNdtTapxPS1aFq_T5mcr-1">
          <mxGeometry width="50" height="50" relative="1" as="geometry">
            <mxPoint x="200" y="470" as="sourcePoint" />
            <mxPoint x="270" y="379" as="targetPoint" />
          </mxGeometry>
        </mxCell>
        <mxCell id="vNdtTapxPS1aFq_T5mcr-10" value="$$R_{ext}$$" style="text;html=1;align=center;verticalAlign=middle;resizable=0;points=[];autosize=1;strokeColor=none;fillColor=none;fontSize=20;fontFamily=Times New Roman;fontStyle=0" vertex="1" parent="1">
          <mxGeometry x="245" y="310" width="130" height="40" as="geometry" />
        </mxCell>
        <mxCell id="vNdtTapxPS1aFq_T5mcr-11" value="$$L_{ext}$$" style="text;html=1;align=center;verticalAlign=middle;resizable=0;points=[];autosize=1;strokeColor=none;fillColor=none;fontSize=20;fontFamily=Times New Roman;fontStyle=0" vertex="1" parent="1">
          <mxGeometry x="375" y="310" width="130" height="40" as="geometry" />
        </mxCell>
        <mxCell id="vNdtTapxPS1aFq_T5mcr-12" value="V" style="ellipse;whiteSpace=wrap;html=1;aspect=fixed;strokeWidth=3;fontFamily=Times New Roman;fontSize=20;" vertex="1" parent="1">
          <mxGeometry x="170" y="390" width="60" height="60" as="geometry" />
        </mxCell>
        <mxCell id="vNdtTapxPS1aFq_T5mcr-13" value="" style="endArrow=none;html=1;rounded=0;strokeWidth=3;entryX=0.5;entryY=0;entryDx=0;entryDy=0;fontFamily=Times New Roman;fontSize=20;" edge="1" parent="1" target="vNdtTapxPS1aFq_T5mcr-12">
          <mxGeometry width="50" height="50" relative="1" as="geometry">
            <mxPoint x="200" y="370" as="sourcePoint" />
            <mxPoint x="400" y="379" as="targetPoint" />
          </mxGeometry>
        </mxCell>
        <mxCell id="vNdtTapxPS1aFq_T5mcr-14" value="" style="endArrow=none;html=1;rounded=0;strokeWidth=3;entryX=0.5;entryY=1;entryDx=0;entryDy=0;fontFamily=Times New Roman;fontSize=20;" edge="1" parent="1" target="vNdtTapxPS1aFq_T5mcr-12">
          <mxGeometry width="50" height="50" relative="1" as="geometry">
            <mxPoint x="200" y="470" as="sourcePoint" />
            <mxPoint x="410" y="389" as="targetPoint" />
          </mxGeometry>
        </mxCell>
      </root>
    </mxGraphModel>
  </diagram>
</mxfile>
